<svg xmlns="http://www.w3.org/2000/svg" xmlns:xlink="http://www.w3.org/1999/xlink" width="250" zoomAndPan="magnify" viewBox="0 0 187.5 60" height="80" preserveAspectRatio="xMidYMid meet" version="1.0"><defs><g/><clipPath id="1913381452"><path d="M 0 0.078125 L 187 0.078125 L 187 59.917969 L 0 59.917969 Z M 0 0.078125 " clip-rule="nonzero"/></clipPath><clipPath id="8e6628fd2f"><path d="M 93.761719 16.007812 L 109.140625 16.007812 L 109.140625 45.257812 L 93.761719 45.257812 Z M 93.761719 16.007812 " clip-rule="nonzero"/></clipPath><clipPath id="7f17bb3c63"><path d="M 110.59375 16.007812 L 125.984375 16.007812 L 125.984375 45.257812 L 110.59375 45.257812 Z M 110.59375 16.007812 " clip-rule="nonzero"/></clipPath><clipPath id="08c3464b1d"><path d="M 1 9 L 8 9 L 8 18 L 1 18 Z M 1 9 " clip-rule="nonzero"/></clipPath><clipPath id="21d4208660"><path d="M -1.40625 10.496094 L 12.171875 6.167969 L 15.8125 17.601562 L 2.238281 21.929688 Z M -1.40625 10.496094 " clip-rule="nonzero"/></clipPath><clipPath id="a59a0c7039"><path d="M -1.40625 10.496094 L 12.171875 6.167969 L 15.8125 17.601562 L 2.238281 21.929688 Z M -1.40625 10.496094 " clip-rule="nonzero"/></clipPath><clipPath id="c8cdda6ea5"><path d="M -1.40625 10.496094 L 12.171875 6.167969 L 15.8125 17.601562 L 2.238281 21.929688 Z M -1.40625 10.496094 " clip-rule="nonzero"/></clipPath><clipPath id="8d52dd65a3"><path d="M 7 7 L 14 7 L 14 16 L 7 16 Z M 7 7 " clip-rule="nonzero"/></clipPath><clipPath id="11c8809c4a"><path d="M -1.40625 10.496094 L 12.171875 6.167969 L 15.8125 17.601562 L 2.238281 21.929688 Z M -1.40625 10.496094 " clip-rule="nonzero"/></clipPath><clipPath id="237468114a"><path d="M -1.40625 10.496094 L 12.171875 6.167969 L 15.8125 17.601562 L 2.238281 21.929688 Z M -1.40625 10.496094 " clip-rule="nonzero"/></clipPath><clipPath id="576db4a821"><path d="M -1.40625 10.496094 L 12.171875 6.167969 L 15.8125 17.601562 L 2.238281 21.929688 Z M -1.40625 10.496094 " clip-rule="nonzero"/></clipPath><clipPath id="aa4a8016d1"><path d="M 0 7 L 16 7 L 16 22 L 0 22 Z M 0 7 " clip-rule="nonzero"/></clipPath><clipPath id="796b68f9d7"><path d="M -1.40625 10.496094 L 12.171875 6.167969 L 15.8125 17.601562 L 2.238281 21.929688 Z M -1.40625 10.496094 " clip-rule="nonzero"/></clipPath><clipPath id="b10215d241"><path d="M -1.40625 10.496094 L 12.171875 6.167969 L 15.8125 17.601562 L 2.238281 21.929688 Z M -1.40625 10.496094 " clip-rule="nonzero"/></clipPath><clipPath id="b6ca88b871"><path d="M -1.40625 10.496094 L 12.171875 6.167969 L 15.8125 17.601562 L 2.238281 21.929688 Z M -1.40625 10.496094 " clip-rule="nonzero"/></clipPath><clipPath id="769da7456c"><path d="M 1 16 L 16 16 L 16 22 L 1 22 Z M 1 16 " clip-rule="nonzero"/></clipPath><clipPath id="57327228fe"><path d="M -1.40625 10.496094 L 12.171875 6.167969 L 15.8125 17.601562 L 2.238281 21.929688 Z M -1.40625 10.496094 " clip-rule="nonzero"/></clipPath><clipPath id="a64e9c70d7"><path d="M -1.40625 10.496094 L 12.171875 6.167969 L 15.8125 17.601562 L 2.238281 21.929688 Z M -1.40625 10.496094 " clip-rule="nonzero"/></clipPath><clipPath id="76cc64f0bb"><path d="M -1.40625 10.496094 L 12.171875 6.167969 L 15.8125 17.601562 L 2.238281 21.929688 Z M -1.40625 10.496094 " clip-rule="nonzero"/></clipPath><clipPath id="efeeb16ec0"><path d="M 6 15 L 10 15 L 10 19 L 6 19 Z M 6 15 " clip-rule="nonzero"/></clipPath><clipPath id="6c8db215e1"><path d="M -1.40625 10.496094 L 12.171875 6.167969 L 15.8125 17.601562 L 2.238281 21.929688 Z M -1.40625 10.496094 " clip-rule="nonzero"/></clipPath><clipPath id="cd9ebd27d7"><path d="M -1.40625 10.496094 L 12.171875 6.167969 L 15.8125 17.601562 L 2.238281 21.929688 Z M -1.40625 10.496094 " clip-rule="nonzero"/></clipPath><clipPath id="0ce935680f"><path d="M -1.40625 10.496094 L 12.171875 6.167969 L 15.8125 17.601562 L 2.238281 21.929688 Z M -1.40625 10.496094 " clip-rule="nonzero"/></clipPath><clipPath id="a364de31ee"><path d="M 3 17 L 6 17 L 6 19 L 3 19 Z M 3 17 " clip-rule="nonzero"/></clipPath><clipPath id="d65a9357b6"><path d="M -1.40625 10.496094 L 12.171875 6.167969 L 15.8125 17.601562 L 2.238281 21.929688 Z M -1.40625 10.496094 " clip-rule="nonzero"/></clipPath><clipPath id="cb8f725e2c"><path d="M -1.40625 10.496094 L 12.171875 6.167969 L 15.8125 17.601562 L 2.238281 21.929688 Z M -1.40625 10.496094 " clip-rule="nonzero"/></clipPath><clipPath id="5fcc3a3617"><path d="M -1.40625 10.496094 L 12.171875 6.167969 L 15.8125 17.601562 L 2.238281 21.929688 Z M -1.40625 10.496094 " clip-rule="nonzero"/></clipPath><clipPath id="d9471e4105"><path d="M 2 18 L 3 18 L 3 20 L 2 20 Z M 2 18 " clip-rule="nonzero"/></clipPath><clipPath id="8ece6a0480"><path d="M -1.40625 10.496094 L 12.171875 6.167969 L 15.8125 17.601562 L 2.238281 21.929688 Z M -1.40625 10.496094 " clip-rule="nonzero"/></clipPath><clipPath id="6409bb9254"><path d="M -1.40625 10.496094 L 12.171875 6.167969 L 15.8125 17.601562 L 2.238281 21.929688 Z M -1.40625 10.496094 " clip-rule="nonzero"/></clipPath><clipPath id="eb64ae7db0"><path d="M -1.40625 10.496094 L 12.171875 6.167969 L 15.8125 17.601562 L 2.238281 21.929688 Z M -1.40625 10.496094 " clip-rule="nonzero"/></clipPath><clipPath id="445fe88eb8"><path d="M 13 14 L 15 14 L 15 16 L 13 16 Z M 13 14 " clip-rule="nonzero"/></clipPath><clipPath id="f9f922ed0a"><path d="M -1.40625 10.496094 L 12.171875 6.167969 L 15.8125 17.601562 L 2.238281 21.929688 Z M -1.40625 10.496094 " clip-rule="nonzero"/></clipPath><clipPath id="78014a0e36"><path d="M -1.40625 10.496094 L 12.171875 6.167969 L 15.8125 17.601562 L 2.238281 21.929688 Z M -1.40625 10.496094 " clip-rule="nonzero"/></clipPath><clipPath id="c016516269"><path d="M -1.40625 10.496094 L 12.171875 6.167969 L 15.8125 17.601562 L 2.238281 21.929688 Z M -1.40625 10.496094 " clip-rule="nonzero"/></clipPath><clipPath id="7fdb495527"><path d="M 10 15 L 13 15 L 13 17 L 10 17 Z M 10 15 " clip-rule="nonzero"/></clipPath><clipPath id="e9af2cafd6"><path d="M -1.40625 10.496094 L 12.171875 6.167969 L 15.8125 17.601562 L 2.238281 21.929688 Z M -1.40625 10.496094 " clip-rule="nonzero"/></clipPath><clipPath id="983c909be7"><path d="M -1.40625 10.496094 L 12.171875 6.167969 L 15.8125 17.601562 L 2.238281 21.929688 Z M -1.40625 10.496094 " clip-rule="nonzero"/></clipPath><clipPath id="01fdd285f7"><path d="M -1.40625 10.496094 L 12.171875 6.167969 L 15.8125 17.601562 L 2.238281 21.929688 Z M -1.40625 10.496094 " clip-rule="nonzero"/></clipPath></defs><g clip-path="url(#1913381452)"><path fill="#ffffff" d="M 0 0.078125 L 187.5 0.078125 L 187.5 67.578125 L 0 67.578125 Z M 0 0.078125 " fill-opacity="1" fill-rule="nonzero"/><path fill="#ffffff" d="M 0 0.078125 L 187.5 0.078125 L 187.5 60.078125 L 0 60.078125 Z M 0 0.078125 " fill-opacity="1" fill-rule="nonzero"/><path fill="#ffffff" d="M 0 0.078125 L 187.5 0.078125 L 187.5 60.078125 L 0 60.078125 Z M 0 0.078125 " fill-opacity="1" fill-rule="nonzero"/></g><g fill="#ff0000" fill-opacity="1"><g transform="translate(1.150679, 42.704926)"><g><path d="M 6.527344 -26.117188 C 3.65625 -26.117188 1.304688 -23.765625 1.304688 -20.890625 L 1.304688 0 L 6.527344 0 L 6.527344 -20.890625 L 11.75 -20.890625 L 11.75 0 L 16.976562 0 L 16.976562 -20.890625 L 22.199219 -20.890625 L 22.199219 0 L 27.421875 0 L 27.421875 -20.890625 C 27.421875 -23.765625 25.070312 -26.117188 22.199219 -26.117188 Z M 6.527344 -26.117188 "/></g></g></g><g fill="#ff0000" fill-opacity="1"><g transform="translate(32.221456, 42.704926)"><g><path d="M 27.421875 -26.117188 L 6.527344 -26.117188 C 3.65625 -26.117188 1.304688 -23.765625 1.304688 -20.890625 L 1.304688 -5.222656 C 1.304688 -2.351562 3.65625 0 6.527344 0 L 27.421875 0 L 27.421875 -5.222656 L 6.527344 -5.222656 L 6.527344 -10.445312 L 27.421875 -10.445312 L 27.421875 -15.667969 L 6.527344 -15.667969 L 6.527344 -20.890625 L 27.421875 -20.890625 Z M 27.421875 -26.117188 "/></g></g></g><g fill="#ff0000" fill-opacity="1"><g transform="translate(63.292233, 42.704926)"><g><path d="M 6.527344 -26.117188 C 3.65625 -26.117188 1.304688 -23.765625 1.304688 -20.890625 L 1.304688 0 L 6.527344 0 L 6.527344 -20.890625 L 11.75 -20.890625 L 11.75 0 L 16.976562 0 L 16.976562 -20.890625 L 22.199219 -20.890625 L 22.199219 0 L 27.421875 0 L 27.421875 -20.890625 C 27.421875 -23.765625 25.070312 -26.117188 22.199219 -26.117188 Z M 6.527344 -26.117188 "/></g></g></g><g fill="#00ffff" fill-opacity="1"><g transform="translate(-0.0736067, 42.704926)"><g><path d="M 6.527344 -26.117188 C 3.65625 -26.117188 1.304688 -23.765625 1.304688 -20.890625 L 1.304688 0 L 6.527344 0 L 6.527344 -20.890625 L 11.75 -20.890625 L 11.75 0 L 16.976562 0 L 16.976562 -20.890625 L 22.199219 -20.890625 L 22.199219 0 L 27.421875 0 L 27.421875 -20.890625 C 27.421875 -23.765625 25.070312 -26.117188 22.199219 -26.117188 Z M 6.527344 -26.117188 "/></g></g></g><g fill="#00ffff" fill-opacity="1"><g transform="translate(30.997171, 42.704926)"><g><path d="M 27.421875 -26.117188 L 6.527344 -26.117188 C 3.65625 -26.117188 1.304688 -23.765625 1.304688 -20.890625 L 1.304688 -5.222656 C 1.304688 -2.351562 3.65625 0 6.527344 0 L 27.421875 0 L 27.421875 -5.222656 L 6.527344 -5.222656 L 6.527344 -10.445312 L 27.421875 -10.445312 L 27.421875 -15.667969 L 6.527344 -15.667969 L 6.527344 -20.890625 L 27.421875 -20.890625 Z M 27.421875 -26.117188 "/></g></g></g><g fill="#00ffff" fill-opacity="1"><g transform="translate(62.067948, 42.704926)"><g><path d="M 6.527344 -26.117188 C 3.65625 -26.117188 1.304688 -23.765625 1.304688 -20.890625 L 1.304688 0 L 6.527344 0 L 6.527344 -20.890625 L 11.75 -20.890625 L 11.75 0 L 16.976562 0 L 16.976562 -20.890625 L 22.199219 -20.890625 L 22.199219 0 L 27.421875 0 L 27.421875 -20.890625 C 27.421875 -23.765625 25.070312 -26.117188 22.199219 -26.117188 Z M 6.527344 -26.117188 "/></g></g></g><g fill="#e54c4c" fill-opacity="1"><g transform="translate(0.538536, 42.704926)"><g><path d="M 6.527344 -26.117188 C 3.65625 -26.117188 1.304688 -23.765625 1.304688 -20.890625 L 1.304688 0 L 6.527344 0 L 6.527344 -20.890625 L 11.75 -20.890625 L 11.75 0 L 16.976562 0 L 16.976562 -20.890625 L 22.199219 -20.890625 L 22.199219 0 L 27.421875 0 L 27.421875 -20.890625 C 27.421875 -23.765625 25.070312 -26.117188 22.199219 -26.117188 Z M 6.527344 -26.117188 "/></g></g></g><g fill="#e54c4c" fill-opacity="1"><g transform="translate(31.609313, 42.704926)"><g><path d="M 27.421875 -26.117188 L 6.527344 -26.117188 C 3.65625 -26.117188 1.304688 -23.765625 1.304688 -20.890625 L 1.304688 -5.222656 C 1.304688 -2.351562 3.65625 0 6.527344 0 L 27.421875 0 L 27.421875 -5.222656 L 6.527344 -5.222656 L 6.527344 -10.445312 L 27.421875 -10.445312 L 27.421875 -15.667969 L 6.527344 -15.667969 L 6.527344 -20.890625 L 27.421875 -20.890625 Z M 27.421875 -26.117188 "/></g></g></g><g fill="#e54c4c" fill-opacity="1"><g transform="translate(62.68009, 42.704926)"><g><path d="M 6.527344 -26.117188 C 3.65625 -26.117188 1.304688 -23.765625 1.304688 -20.890625 L 1.304688 0 L 6.527344 0 L 6.527344 -20.890625 L 11.75 -20.890625 L 11.75 0 L 16.976562 0 L 16.976562 -20.890625 L 22.199219 -20.890625 L 22.199219 0 L 27.421875 0 L 27.421875 -20.890625 C 27.421875 -23.765625 25.070312 -26.117188 22.199219 -26.117188 Z M 6.527344 -26.117188 "/></g></g></g><g fill="#ff0000" fill-opacity="1"><g transform="translate(94.354978, 42.704926)"><g/></g></g><g fill="#ff0000" fill-opacity="1"><g transform="translate(111.065687, 42.704926)"><g/></g></g><g fill="#00ffff" fill-opacity="1"><g transform="translate(93.130693, 42.704926)"><g/></g></g><g fill="#00ffff" fill-opacity="1"><g transform="translate(109.841402, 42.704926)"><g/></g></g><g fill="#e54c4c" fill-opacity="1"><g transform="translate(93.742835, 42.704926)"><g/></g></g><g fill="#e54c4c" fill-opacity="1"><g transform="translate(110.453545, 42.704926)"><g/></g></g><g fill="#ff0000" fill-opacity="1"><g transform="translate(127.769497, 42.704926)"><g><path d="M 27.421875 -20.890625 C 27.421875 -23.765625 25.070312 -26.117188 22.199219 -26.117188 L 1.304688 -26.117188 L 1.304688 0 L 6.527344 0 L 6.527344 -10.445312 L 9.597656 -10.445312 L 19.261719 -0.785156 C 19.78125 -0.261719 20.433594 0 21.152344 0 L 27.421875 0 L 27.421875 -5.222656 L 22.199219 -5.222656 L 16.976562 -10.445312 L 22.199219 -10.445312 C 25.070312 -10.445312 27.421875 -12.796875 27.421875 -15.667969 Z M 22.199219 -20.890625 L 22.199219 -15.667969 L 6.527344 -15.667969 L 6.527344 -20.890625 Z M 22.199219 -20.890625 "/></g></g></g><g fill="#ff0000" fill-opacity="1"><g transform="translate(158.840275, 42.704926)"><g><path d="M 22.199219 -15.667969 L 6.527344 -15.667969 L 6.527344 -26.117188 L 1.304688 -26.117188 L 1.304688 -15.667969 C 1.304688 -12.796875 3.65625 -10.445312 6.527344 -10.445312 L 22.199219 -10.445312 L 22.199219 -5.222656 L 1.304688 -5.222656 L 1.304688 0 L 22.199219 0 C 25.070312 0 27.421875 -2.351562 27.421875 -5.222656 L 27.421875 -26.117188 L 22.199219 -26.117188 Z M 22.199219 -15.667969 "/></g></g></g><g fill="#00ffff" fill-opacity="1"><g transform="translate(126.545212, 42.704926)"><g><path d="M 27.421875 -20.890625 C 27.421875 -23.765625 25.070312 -26.117188 22.199219 -26.117188 L 1.304688 -26.117188 L 1.304688 0 L 6.527344 0 L 6.527344 -10.445312 L 9.597656 -10.445312 L 19.261719 -0.785156 C 19.78125 -0.261719 20.433594 0 21.152344 0 L 27.421875 0 L 27.421875 -5.222656 L 22.199219 -5.222656 L 16.976562 -10.445312 L 22.199219 -10.445312 C 25.070312 -10.445312 27.421875 -12.796875 27.421875 -15.667969 Z M 22.199219 -20.890625 L 22.199219 -15.667969 L 6.527344 -15.667969 L 6.527344 -20.890625 Z M 22.199219 -20.890625 "/></g></g></g><g fill="#00ffff" fill-opacity="1"><g transform="translate(157.615989, 42.704926)"><g><path d="M 22.199219 -15.667969 L 6.527344 -15.667969 L 6.527344 -26.117188 L 1.304688 -26.117188 L 1.304688 -15.667969 C 1.304688 -12.796875 3.65625 -10.445312 6.527344 -10.445312 L 22.199219 -10.445312 L 22.199219 -5.222656 L 1.304688 -5.222656 L 1.304688 0 L 22.199219 0 C 25.070312 0 27.421875 -2.351562 27.421875 -5.222656 L 27.421875 -26.117188 L 22.199219 -26.117188 Z M 22.199219 -15.667969 "/></g></g></g><g fill="#e54c4c" fill-opacity="1"><g transform="translate(127.157355, 42.704926)"><g><path d="M 27.421875 -20.890625 C 27.421875 -23.765625 25.070312 -26.117188 22.199219 -26.117188 L 1.304688 -26.117188 L 1.304688 0 L 6.527344 0 L 6.527344 -10.445312 L 9.597656 -10.445312 L 19.261719 -0.785156 C 19.78125 -0.261719 20.433594 0 21.152344 0 L 27.421875 0 L 27.421875 -5.222656 L 22.199219 -5.222656 L 16.976562 -10.445312 L 22.199219 -10.445312 C 25.070312 -10.445312 27.421875 -12.796875 27.421875 -15.667969 Z M 22.199219 -20.890625 L 22.199219 -15.667969 L 6.527344 -15.667969 L 6.527344 -20.890625 Z M 22.199219 -20.890625 "/></g></g></g><g fill="#e54c4c" fill-opacity="1"><g transform="translate(158.228132, 42.704926)"><g><path d="M 22.199219 -15.667969 L 6.527344 -15.667969 L 6.527344 -26.117188 L 1.304688 -26.117188 L 1.304688 -15.667969 C 1.304688 -12.796875 3.65625 -10.445312 6.527344 -10.445312 L 22.199219 -10.445312 L 22.199219 -5.222656 L 1.304688 -5.222656 L 1.304688 0 L 22.199219 0 C 25.070312 0 27.421875 -2.351562 27.421875 -5.222656 L 27.421875 -26.117188 L 22.199219 -26.117188 Z M 22.199219 -15.667969 "/></g></g></g><g clip-path="url(#8e6628fd2f)"><path fill="#28d4d4" d="M 108.21875 42.671875 C 108.21875 43.054688 108.03125 43.402344 107.714844 43.605469 C 106.960938 44.09375 106.089844 44.351562 105.1875 44.351562 C 103.835938 44.351562 102.59375 43.78125 101.722656 42.8125 C 101.714844 42.789062 101.703125 42.765625 101.691406 42.742188 C 100.410156 40.464844 100.523438 37.421875 101.9375 35.230469 C 102.328125 35.425781 102.753906 35.546875 103.175781 35.574219 C 103.1875 35.574219 103.195312 35.574219 103.207031 35.574219 C 103.441406 35.574219 103.640625 35.390625 103.65625 35.152344 C 103.671875 34.902344 103.484375 34.6875 103.234375 34.667969 C 102.25 34.605469 101.332031 33.863281 101.058594 32.910156 C 100.988281 32.671875 100.738281 32.53125 100.5 32.601562 C 100.257812 32.671875 100.121094 32.921875 100.191406 33.164062 C 100.359375 33.75 100.710938 34.296875 101.1875 34.722656 C 100.425781 35.894531 99.980469 37.28125 99.902344 38.75 C 99.855469 39.621094 99.9375 40.476562 100.148438 41.289062 C 99.050781 40.839844 98.148438 40 97.609375 38.953125 C 97.609375 38.953125 97.605469 38.949219 97.605469 38.945312 C 96.816406 36.785156 97.203125 34.207031 98.59375 32.375 C 98.746094 32.175781 98.707031 31.890625 98.511719 31.738281 C 98.3125 31.585938 98.027344 31.625 97.875 31.824219 C 97.101562 32.847656 96.585938 34.082031 96.386719 35.402344 C 96.3125 35.898438 96.285156 36.394531 96.300781 36.886719 C 95.265625 35.871094 94.667969 34.46875 94.667969 32.992188 C 94.667969 32.457031 94.746094 31.925781 94.898438 31.414062 C 95.832031 29.242188 98.179688 27.714844 100.535156 27.734375 C 100.496094 28.078125 100.492188 28.425781 100.523438 28.769531 C 100.546875 29.003906 100.742188 29.179688 100.972656 29.179688 C 100.988281 29.179688 101 29.179688 101.015625 29.179688 C 101.265625 29.15625 101.445312 28.933594 101.425781 28.683594 C 101.339844 27.773438 101.5625 26.847656 102.054688 26.078125 C 102.1875 25.867188 102.125 25.585938 101.917969 25.449219 C 101.707031 25.316406 101.425781 25.378906 101.292969 25.589844 C 101.046875 25.976562 100.855469 26.394531 100.722656 26.832031 C 100.714844 26.832031 100.707031 26.832031 100.695312 26.832031 C 99.339844 26.785156 97.929688 27.1875 96.726562 27.960938 C 96.097656 28.367188 95.539062 28.867188 95.070312 29.429688 C 94.929688 28.949219 94.855469 28.449219 94.855469 27.941406 C 94.855469 26.714844 95.277344 25.558594 96.023438 24.640625 C 96.0625 24.617188 96.101562 24.585938 96.136719 24.550781 C 97.554688 23.019531 99.789062 22.296875 101.828125 22.703125 C 102.070312 22.753906 102.308594 22.59375 102.359375 22.347656 C 102.40625 22.101562 102.25 21.863281 102.003906 21.816406 C 100.542969 21.523438 99 21.738281 97.648438 22.363281 C 98.214844 20.328125 99.953125 18.820312 102.054688 18.558594 C 103.628906 18.40625 105.273438 18.992188 106.359375 20.15625 C 106.449219 20.25 106.570312 20.296875 106.6875 20.296875 C 106.800781 20.296875 106.910156 20.257812 107 20.175781 C 107.179688 20.003906 107.1875 19.714844 107.019531 19.535156 C 106.261719 18.722656 105.273438 18.152344 104.207031 17.859375 C 105.046875 17.246094 106.050781 16.914062 107.109375 16.914062 L 107.125 16.914062 C 107.726562 16.917969 108.21875 17.414062 108.21875 18.027344 Z M 107.125 16.007812 L 107.109375 16.007812 C 105.59375 16.007812 104.171875 16.578125 103.082031 17.621094 C 102.957031 17.613281 102.832031 17.609375 102.707031 17.609375 C 102.445312 17.609375 102.183594 17.628906 101.925781 17.660156 C 101.574219 17.695312 101.226562 17.761719 100.886719 17.863281 C 100.835938 17.878906 100.792969 17.902344 100.753906 17.929688 C 98.605469 18.648438 96.964844 20.527344 96.617188 22.871094 C 94.945312 24.019531 93.953125 25.898438 93.953125 27.941406 C 93.953125 28.734375 94.101562 29.5 94.390625 30.226562 C 94.257812 30.507812 94.144531 30.800781 94.050781 31.097656 C 94.050781 31.101562 94.046875 31.105469 94.046875 31.109375 C 94.03125 31.140625 94.023438 31.175781 94.015625 31.210938 C 93.851562 31.785156 93.761719 32.386719 93.761719 32.992188 C 93.761719 35.007812 94.71875 36.90625 96.328125 38.101562 C 96.570312 39.085938 97.066406 39.992188 97.765625 40.730469 C 98.457031 41.464844 99.316406 42 100.269531 42.296875 C 100.722656 43.144531 101.382812 43.863281 102.195312 44.382812 C 103.089844 44.957031 104.125 45.257812 105.1875 45.257812 C 106.261719 45.257812 107.304688 44.949219 108.207031 44.367188 C 108.78125 43.996094 109.121094 43.363281 109.121094 42.671875 L 109.121094 18.027344 C 109.121094 16.917969 108.226562 16.011719 107.125 16.007812 " fill-opacity="1" fill-rule="nonzero"/></g><g clip-path="url(#7f17bb3c63)"><path fill="#28d4d4" d="M 123.449219 36.886719 C 123.464844 36.394531 123.4375 35.898438 123.363281 35.402344 C 123.164062 34.082031 122.648438 32.847656 121.871094 31.824219 C 121.722656 31.625 121.4375 31.585938 121.238281 31.738281 C 121.039062 31.890625 121.003906 32.175781 121.152344 32.375 C 122.542969 34.207031 122.933594 36.785156 122.144531 38.945312 C 122.140625 38.949219 122.140625 38.953125 122.140625 38.953125 C 121.601562 40 120.695312 40.839844 119.601562 41.289062 C 119.808594 40.476562 119.894531 39.621094 119.847656 38.75 C 119.769531 37.28125 119.324219 35.894531 118.558594 34.722656 C 119.035156 34.296875 119.390625 33.75 119.558594 33.164062 C 119.628906 32.921875 119.488281 32.671875 119.25 32.601562 C 119.011719 32.53125 118.761719 32.671875 118.691406 32.910156 C 118.414062 33.863281 117.5 34.605469 116.511719 34.667969 C 116.265625 34.6875 116.074219 34.902344 116.09375 35.152344 C 116.109375 35.390625 116.308594 35.574219 116.542969 35.574219 C 116.550781 35.574219 116.5625 35.574219 116.574219 35.574219 C 116.996094 35.546875 117.417969 35.425781 117.8125 35.230469 C 119.226562 37.421875 119.339844 40.464844 118.058594 42.742188 C 118.042969 42.765625 118.035156 42.789062 118.027344 42.8125 C 117.15625 43.78125 115.914062 44.351562 114.5625 44.351562 C 113.660156 44.351562 112.785156 44.09375 112.035156 43.605469 C 111.71875 43.402344 111.53125 43.054688 111.53125 42.671875 L 111.53125 18.027344 C 111.53125 17.414062 112.023438 16.917969 112.625 16.914062 L 112.640625 16.914062 C 113.699219 16.914062 114.703125 17.246094 115.539062 17.859375 C 114.476562 18.152344 113.488281 18.722656 112.730469 19.535156 C 112.558594 19.714844 112.570312 20.003906 112.75 20.175781 C 112.835938 20.257812 112.949219 20.296875 113.058594 20.296875 C 113.179688 20.296875 113.300781 20.25 113.390625 20.15625 C 114.476562 18.992188 116.121094 18.40625 117.695312 18.558594 C 119.796875 18.820312 121.535156 20.328125 122.101562 22.363281 C 120.75 21.738281 119.203125 21.523438 117.746094 21.816406 C 117.5 21.863281 117.34375 22.101562 117.390625 22.347656 C 117.4375 22.59375 117.675781 22.753906 117.921875 22.703125 C 119.960938 22.296875 122.195312 23.019531 123.609375 24.550781 C 123.644531 24.585938 123.683594 24.617188 123.726562 24.640625 C 124.472656 25.558594 124.894531 26.714844 124.894531 27.941406 C 124.894531 28.449219 124.820312 28.949219 124.679688 29.429688 C 124.210938 28.867188 123.652344 28.367188 123.023438 27.960938 C 121.816406 27.1875 120.410156 26.785156 119.050781 26.832031 C 119.042969 26.832031 119.035156 26.832031 119.027344 26.832031 C 118.894531 26.394531 118.703125 25.976562 118.457031 25.589844 C 118.320312 25.378906 118.042969 25.316406 117.832031 25.449219 C 117.621094 25.585938 117.5625 25.867188 117.695312 26.078125 C 118.1875 26.847656 118.410156 27.773438 118.324219 28.683594 C 118.300781 28.933594 118.484375 29.15625 118.734375 29.179688 C 118.746094 29.179688 118.761719 29.179688 118.773438 29.179688 C 119.007812 29.179688 119.203125 29.003906 119.222656 28.769531 C 119.257812 28.425781 119.253906 28.078125 119.214844 27.734375 C 121.570312 27.714844 123.917969 29.242188 124.851562 31.414062 C 125.003906 31.925781 125.082031 32.457031 125.082031 32.992188 C 125.082031 34.46875 124.484375 35.871094 123.449219 36.886719 Z M 125.730469 31.210938 C 125.726562 31.175781 125.71875 31.140625 125.703125 31.109375 C 125.703125 31.105469 125.699219 31.101562 125.699219 31.097656 C 125.605469 30.800781 125.492188 30.507812 125.359375 30.226562 C 125.648438 29.5 125.796875 28.734375 125.796875 27.941406 C 125.796875 25.898438 124.804688 24.019531 123.132812 22.871094 C 122.78125 20.527344 121.144531 18.648438 118.996094 17.929688 C 118.957031 17.902344 118.914062 17.878906 118.863281 17.863281 C 118.523438 17.761719 118.175781 17.695312 117.824219 17.660156 C 117.566406 17.628906 117.304688 17.609375 117.039062 17.609375 C 116.917969 17.609375 116.792969 17.613281 116.667969 17.621094 C 115.574219 16.578125 114.152344 16.007812 112.640625 16.007812 L 112.621094 16.007812 C 111.523438 16.011719 110.628906 16.917969 110.628906 18.027344 L 110.628906 42.671875 C 110.628906 43.363281 110.96875 43.996094 111.542969 44.367188 C 112.441406 44.949219 113.488281 45.257812 114.5625 45.257812 C 115.625 45.257812 116.660156 44.957031 117.554688 44.382812 C 118.363281 43.863281 119.027344 43.144531 119.480469 42.296875 C 120.429688 42 121.292969 41.464844 121.984375 40.730469 C 122.683594 39.992188 123.179688 39.085938 123.417969 38.101562 C 125.03125 36.90625 125.984375 35.007812 125.984375 32.992188 C 125.984375 32.386719 125.898438 31.785156 125.730469 31.210938 " fill-opacity="1" fill-rule="nonzero"/></g><g clip-path="url(#08c3464b1d)"><g clip-path="url(#21d4208660)"><g clip-path="url(#a59a0c7039)"><g clip-path="url(#c8cdda6ea5)"><path fill="#f7a717" d="M 1.847656 17.304688 L 2.019531 9.847656 L 7.652344 15.453125 " fill-opacity="1" fill-rule="nonzero"/></g></g></g></g><g clip-path="url(#8d52dd65a3)"><g clip-path="url(#11c8809c4a)"><g clip-path="url(#237468114a)"><g clip-path="url(#576db4a821)"><path fill="#f7a717" d="M 13.660156 13.539062 L 9.199219 7.558594 L 7.851562 15.390625 " fill-opacity="1" fill-rule="nonzero"/></g></g></g></g><g clip-path="url(#aa4a8016d1)"><g clip-path="url(#796b68f9d7)"><g clip-path="url(#b10215d241)"><g clip-path="url(#b6ca88b871)"><path fill="#ffce01" d="M 9.664062 13.207031 L 5.382812 8.332031 L 4.765625 14.8125 L -1.058594 11.570312 L 0.464844 16.359375 L 1.125 18.421875 L 2.027344 21.253906 C 2.144531 21.625 5.277344 20.957031 9.027344 19.761719 C 12.777344 18.566406 15.71875 17.296875 15.601562 16.925781 L 14.699219 14.097656 L 14.042969 12.035156 L 12.515625 7.242188 Z M 9.664062 13.207031 " fill-opacity="1" fill-rule="nonzero"/></g></g></g></g><g clip-path="url(#769da7456c)"><g clip-path="url(#57327228fe)"><g clip-path="url(#a64e9c70d7)"><g clip-path="url(#76cc64f0bb)"><path fill="#f7a717" d="M 8.785156 18.996094 C 5.035156 20.191406 1.898438 20.859375 1.78125 20.488281 L 2.027344 21.253906 C 2.144531 21.625 5.277344 20.957031 9.027344 19.761719 C 12.777344 18.566406 15.71875 17.296875 15.601562 16.925781 L 15.355469 16.160156 C 15.476562 16.53125 12.53125 17.800781 8.785156 18.996094 Z M 8.785156 18.996094 " fill-opacity="1" fill-rule="nonzero"/></g></g></g></g><g clip-path="url(#efeeb16ec0)"><g clip-path="url(#6c8db215e1)"><g clip-path="url(#cd9ebd27d7)"><g clip-path="url(#0ce935680f)"><path fill="#9a63a6" d="M 8.476562 15.191406 L 6.828125 15.714844 L 6.472656 17.449219 L 7.765625 18.65625 L 9.414062 18.132812 L 9.773438 16.398438 Z M 8.476562 15.191406 " fill-opacity="1" fill-rule="nonzero"/><path fill="#b47fb6" d="M 8.390625 15.613281 L 7.144531 16.011719 L 6.875 17.320312 L 7.855469 18.234375 L 9.101562 17.835938 L 9.367188 16.527344 Z M 8.390625 15.613281 " fill-opacity="1" fill-rule="nonzero"/></g></g></g></g><g clip-path="url(#a364de31ee)"><g clip-path="url(#d65a9357b6)"><g clip-path="url(#cb8f725e2c)"><g clip-path="url(#5fcc3a3617)"><path fill="#ec635b" d="M 5.21875 17.847656 C 5.277344 18.03125 5.261719 18.203125 5.179688 18.371094 C 5.097656 18.539062 4.964844 18.652344 4.789062 18.707031 C 4.613281 18.765625 4.445312 18.746094 4.277344 18.660156 C 4.113281 18.570312 4.003906 18.4375 3.945312 18.253906 C 3.886719 18.074219 3.898438 17.898438 3.984375 17.730469 C 4.066406 17.5625 4.195312 17.453125 4.371094 17.394531 C 4.546875 17.339844 4.71875 17.355469 4.882812 17.445312 C 5.050781 17.53125 5.160156 17.667969 5.21875 17.847656 Z M 5.21875 17.847656 " fill-opacity="1" fill-rule="nonzero"/></g></g></g></g><g clip-path="url(#d9471e4105)"><g clip-path="url(#8ece6a0480)"><g clip-path="url(#6409bb9254)"><g clip-path="url(#eb64ae7db0)"><path fill="#ec635b" d="M 2.917969 18.582031 C 2.949219 18.6875 2.941406 18.789062 2.894531 18.886719 C 2.847656 18.984375 2.769531 19.046875 2.667969 19.082031 C 2.566406 19.113281 2.46875 19.105469 2.371094 19.050781 C 2.277344 19 2.210938 18.921875 2.179688 18.816406 C 2.144531 18.714844 2.152344 18.613281 2.199219 18.515625 C 2.25 18.417969 2.324219 18.351562 2.425781 18.320312 C 2.527344 18.289062 2.628906 18.296875 2.722656 18.347656 C 2.820312 18.398438 2.882812 18.476562 2.917969 18.582031 Z M 2.917969 18.582031 " fill-opacity="1" fill-rule="nonzero"/></g></g></g></g><g clip-path="url(#445fe88eb8)"><g clip-path="url(#f9f922ed0a)"><g clip-path="url(#78014a0e36)"><g clip-path="url(#c016516269)"><path fill="#ec635b" d="M 14.183594 14.992188 C 14.21875 15.097656 14.210938 15.199219 14.160156 15.296875 C 14.113281 15.390625 14.039062 15.457031 13.9375 15.488281 C 13.835938 15.523438 13.734375 15.511719 13.640625 15.460938 C 13.542969 15.410156 13.480469 15.332031 13.445312 15.226562 C 13.414062 15.121094 13.417969 15.019531 13.46875 14.921875 C 13.515625 14.828125 13.589844 14.761719 13.695312 14.730469 C 13.796875 14.695312 13.894531 14.707031 13.992188 14.757812 C 14.085938 14.808594 14.152344 14.886719 14.183594 14.992188 Z M 14.183594 14.992188 " fill-opacity="1" fill-rule="nonzero"/></g></g></g></g><g clip-path="url(#7fdb495527)"><g clip-path="url(#e9af2cafd6)"><g clip-path="url(#983c909be7)"><g clip-path="url(#01fdd285f7)"><path fill="#ec635b" d="M 12.277344 15.601562 C 12.332031 15.78125 12.320312 15.957031 12.238281 16.121094 C 12.152344 16.289062 12.023438 16.402344 11.847656 16.457031 C 11.671875 16.515625 11.5 16.5 11.335938 16.410156 C 11.171875 16.320312 11.058594 16.1875 11.003906 16.003906 C 10.945312 15.824219 10.957031 15.648438 11.042969 15.484375 C 11.125 15.316406 11.253906 15.203125 11.429688 15.148438 C 11.605469 15.089844 11.777344 15.105469 11.941406 15.195312 C 12.105469 15.285156 12.21875 15.417969 12.277344 15.601562 Z M 12.277344 15.601562 " fill-opacity="1" fill-rule="nonzero"/></g></g></g></g></svg>